<svg xmlns="http://www.w3.org/2000/svg" width="16" height="16" viewBox="0 0 16 16"><defs><style>.a{fill:none;}.a,.b{fill-rule:evenodd;}.b{fill:#fff;}</style></defs><g transform="translate(1 1)"><g transform="translate(-1 -1)"><path class="a" d="M0,0H16V16H0Z"/><path class="b" d="M8.289,6.312a.665.665,0,0,0,.663-.664V4.32h1.325a.664.664,0,0,0,0-1.328H8.952V1.664a.663.663,0,1,0-1.325,0V2.992H6.3a.664.664,0,0,0,0,1.328H7.627V5.648A.665.665,0,0,0,8.289,6.312ZM4.976,12.287A1.328,1.328,0,1,0,6.3,13.615,1.325,1.325,0,0,0,4.976,12.287Zm6.627,0a1.328,1.328,0,1,0,1.325,1.328A1.325,1.325,0,0,0,11.6,12.287ZM5.7,8.968h4.937a1.319,1.319,0,0,0,1.16-.684l2.24-4.07a.66.66,0,1,0-1.153-.644L10.642,7.64H5.99l-2.644-5.6a.658.658,0,0,0-.6-.378H1.663a.664.664,0,0,0,0,1.328h.663l2.386,5.04-.895,1.62a1.33,1.33,0,0,0,1.16,1.972h7.289a.664.664,0,0,0,0-1.328H4.976Z" transform="translate(0)"/></g></g></svg>