<svg xmlns="http://www.w3.org/2000/svg" width="20.608" height="20.608" viewBox="0 0 20.608 20.608"><path d="M7.116,0H2.383A2.386,2.386,0,0,0,0,2.383V7.116A2.386,2.386,0,0,0,2.383,9.5H7.116A2.386,2.386,0,0,0,9.5,7.116V2.383A2.386,2.386,0,0,0,7.116,0Zm.773,7.116a.774.774,0,0,1-.773.773H2.383a.774.774,0,0,1-.773-.773V2.383a.774.774,0,0,1,.773-.773H7.116a.774.774,0,0,1,.773.773Z" fill="#fff"/><g transform="translate(11.109)"><path d="M283.084,0h-4.669A2.418,2.418,0,0,0,276,2.415V7.084A2.418,2.418,0,0,0,278.415,9.5h4.669A2.418,2.418,0,0,0,285.5,7.084V2.415A2.418,2.418,0,0,0,283.084,0Zm.8,7.084a.806.806,0,0,1-.8.805h-4.669a.806.806,0,0,1-.805-.805V2.415a.806.806,0,0,1,.805-.805h4.669a.806.806,0,0,1,.8.805Z" transform="translate(-276)" fill="#fff"/></g><g transform="translate(0 11.109)"><path d="M7.116,276H2.383A2.386,2.386,0,0,0,0,278.383v4.733A2.386,2.386,0,0,0,2.383,285.5H7.116A2.386,2.386,0,0,0,9.5,283.116v-4.733A2.386,2.386,0,0,0,7.116,276Zm.773,7.116a.774.774,0,0,1-.773.773H2.383a.774.774,0,0,1-.773-.773v-4.733a.774.774,0,0,1,.773-.773H7.116a.774.774,0,0,1,.773.773Z" transform="translate(0 -276)" fill="#fff"/></g><g transform="translate(11.109 11.109)"><path d="M283.084,276h-4.669A2.418,2.418,0,0,0,276,278.415v4.669a2.418,2.418,0,0,0,2.415,2.415h4.669a2.418,2.418,0,0,0,2.415-2.415v-4.669A2.418,2.418,0,0,0,283.084,276Zm.8,7.084a.806.806,0,0,1-.8.8h-4.669a.806.806,0,0,1-.805-.8v-4.669a.806.806,0,0,1,.805-.805h4.669a.806.806,0,0,1,.8.805Z" transform="translate(-276 -276)" fill="#fff"/></g></svg>