<svg xmlns="http://www.w3.org/2000/svg" width="341.172" height="239.054" viewBox="0 0 341.172 239.054"><defs><style>.a{fill:#e7e8e5;}.b{fill:#e2e2e0;}.c{fill:#dadbd8;}.d{fill:#fff;}.e{fill:#f3f2f1;}.f{fill:#cb1b5f;}</style></defs><g transform="translate(0 496.811)"><g transform="translate(0 -496.811)"><path class="a" d="M341.172-60.046H0v-.171H341.172v.171" transform="translate(0 283.648)"/><path class="a" d="M54.837-496.64a3.728,3.728,0,0,0-3.724,3.724v185.21a3.728,3.728,0,0,0,3.724,3.724H186.6a3.728,3.728,0,0,0,3.724-3.724v-185.21a3.729,3.729,0,0,0-3.724-3.724H54.837M186.6-303.812H54.837a3.9,3.9,0,0,1-3.895-3.895v-185.21a3.9,3.9,0,0,1,3.895-3.894H186.6a3.9,3.9,0,0,1,3.894,3.894v185.21a3.9,3.9,0,0,1-3.894,3.895" transform="translate(-24.872 496.811)"/><path class="a" d="M343.233-496.64a3.728,3.728,0,0,0-3.724,3.724v185.21a3.728,3.728,0,0,0,3.724,3.724h131.76a3.728,3.728,0,0,0,3.724-3.724v-185.21a3.729,3.729,0,0,0-3.724-3.724H343.233m131.76,192.828H343.233a3.9,3.9,0,0,1-3.894-3.895v-185.21a3.9,3.9,0,0,1,3.894-3.894h131.76a3.9,3.9,0,0,1,3.895,3.894v185.21a3.9,3.9,0,0,1-3.895,3.895" transform="translate(-165.679 496.811)"/><path class="a" d="M86.111-47.349H68.372v-.171H86.111v.171" transform="translate(-33.382 277.448)"/><path class="a" d="M224.261-50.968H193.537v-.171h30.724v.171" transform="translate(-94.493 279.215)"/><path class="a" d="M145.85-34.968H104.369v-.171H145.85v.171" transform="translate(-50.957 271.403)"/><path class="a" d="M585.772-37.208H572.648v-.171h13.124v.171" transform="translate(-279.59 272.497)"/><path class="a" d="M524.782-37.208H487.053v-.171h37.728v.171" transform="translate(-237.8 272.497)"/><path class="a" d="M393.54-42.837H342.728v-.171H393.54v.171" transform="translate(-167.334 275.245)"/><path class="b" d="M298.544-202.3a18.461,18.461,0,0,1-18.1,16.826A15.379,15.379,0,0,1,264.891-202.3l3.036-40.054a18.468,18.468,0,0,1,18.1-16.833,15.509,15.509,0,0,1,11.527,4.933,15.623,15.623,0,0,1,4.024,11.9L298.544-202.3M246.2-282.829,237.57-168.9H320.8l8.634-113.925H246.2" transform="translate(-115.991 392.336)"/><path class="b" d="M336.041-67.348H214.673l.7-7.475H336.74l-.7,7.475" transform="translate(-104.812 290.779)"/><path class="c" d="M541.809-145.731h10.747a1.055,1.055,0,0,0,1.06-1.117l-.038-.762a1.19,1.19,0,0,0-1.172-1.117H541.659a1.054,1.054,0,0,0-1.06,1.117l.038.762a1.191,1.191,0,0,0,1.172,1.117" transform="translate(-263.942 326.862)"/><path class="c" d="M506.691-145.731h10.748a1.055,1.055,0,0,0,1.06-1.117l-.038-.762a1.191,1.191,0,0,0-1.172-1.117H506.541a1.055,1.055,0,0,0-1.061,1.117l.038.762a1.192,1.192,0,0,0,1.172,1.117" transform="translate(-246.796 326.862)"/><path class="c" d="M328.522-298.27H77.676a5.567,5.567,0,0,1-5.5-5.238L64.624-454.182A4.934,4.934,0,0,1,69.6-459.42H320.446a5.569,5.569,0,0,1,5.5,5.238L333.5-303.507a4.934,4.934,0,0,1-4.976,5.238" transform="translate(-31.549 478.555)"/><path class="b" d="M334.528-298.27H83.682a5.567,5.567,0,0,1-5.5-5.238L70.63-454.182a4.935,4.935,0,0,1,4.976-5.238H326.452a5.569,5.569,0,0,1,5.5,5.238L339.5-303.507a4.933,4.933,0,0,1-4.976,5.238" transform="translate(-34.481 478.555)"/><path class="d" d="M92.3-301.884,85.282-442a3.092,3.092,0,0,1,3.118-3.283H328.693A3.489,3.489,0,0,1,332.139-442l7.023,140.119a3.092,3.092,0,0,1-3.118,3.283H95.751a3.489,3.489,0,0,1-3.447-3.283" transform="translate(-41.636 471.654)"/><path class="d" d="M108.672-434.048a2.736,2.736,0,0,1-2.759,2.9,3.087,3.087,0,0,1-3.049-2.9,2.735,2.735,0,0,1,2.759-2.9,3.087,3.087,0,0,1,3.049,2.9" transform="translate(-50.221 467.585)"/><path class="d" d="M134.368-434.048a2.735,2.735,0,0,1-2.759,2.9,3.087,3.087,0,0,1-3.049-2.9,2.735,2.735,0,0,1,2.759-2.9,3.087,3.087,0,0,1,3.049,2.9" transform="translate(-62.767 467.585)"/><path class="d" d="M160.064-434.048a2.736,2.736,0,0,1-2.759,2.9,3.087,3.087,0,0,1-3.049-2.9,2.735,2.735,0,0,1,2.759-2.9,3.087,3.087,0,0,1,3.049,2.9" transform="translate(-75.312 467.585)"/><path class="e" d="M339.412-22.469c0,4.267-59.231,7.726-132.3,7.726s-132.3-3.459-132.3-7.726,59.232-7.727,132.3-7.727,132.3,3.459,132.3,7.727" transform="translate(-36.527 253.797)"/><path class="f" d="M278.961-282.845c-.134-2.971-1.825-5.322-3.774-5.251s-3.421,2.534-3.286,5.5,1.824,5.322,3.773,5.251,3.421-2.535,3.287-5.5" transform="translate(-132.749 394.909)"/><path class="f" d="M359.455-284.659c-.135-2.971-1.825-5.322-3.774-5.252s-3.421,2.535-3.287,5.506,1.825,5.321,3.774,5.251,3.421-2.535,3.287-5.505" transform="translate(-172.049 395.795)"/><path class="f" d="M301.941-255.522a24.9,24.9,0,0,1,19.533.89.867.867,0,0,1,.337,1.185.884.884,0,0,1-1.2.332,23.982,23.982,0,0,0-21.43.693.887.887,0,0,1-1.187-.371.865.865,0,0,1,.371-1.174,29.228,29.228,0,0,1,3.571-1.555" transform="translate(-145.446 379.76)"/><path class="f" d="M261.129-332.3a1.765,1.765,0,0,1,.856.247,1.746,1.746,0,0,1,.628,2.392,17.248,17.248,0,0,1-13.334,8.711,1.766,1.766,0,0,1-1.836-1.674,1.731,1.731,0,0,1,1.66-1.812,13.778,13.778,0,0,0,10.481-7.013,1.742,1.742,0,0,1,1.544-.851" transform="translate(-120.811 416.489)"/><path class="f" d="M353.393-334.283a1.774,1.774,0,0,1,1.591.487,14.055,14.055,0,0,0,11.955,4.314,1.772,1.772,0,0,1,2.069,1.371,1.726,1.726,0,0,1-1.353,2.046,17.611,17.611,0,0,1-15.154-5.283,1.734,1.734,0,0,1,0-2.465,1.738,1.738,0,0,1,.893-.47" transform="translate(-171.854 417.474)"/></g></g></svg>