<svg xmlns="http://www.w3.org/2000/svg" width="24" height="24" viewBox="0 0 24 24"><g transform="translate(-4108 -269)"><rect width="24" height="24" transform="translate(4108 269)" fill="none"/><g transform="translate(4111 274)"><path d="M4.5,21.8c0-.544.328-.985.732-.985H21.154c.4,0,.732.441.732.985s-.328.985-.732.985H5.232C4.828,22.784,4.5,22.344,4.5,21.8Zm0-5.908c0-.544.328-.985.732-.985H15.473c.4,0,.732.441.732.985s-.328.985-.732.985H5.232C4.828,16.877,4.5,16.436,4.5,15.892Zm0-5.908c0-.544.328-.985.732-.985H21.325c.4,0,.732.441.732.985s-.328.985-.732.985H5.232C4.828,10.969,4.5,10.528,4.5,9.985Z" transform="translate(-4.5 -9)" fill="#444b51" fill-rule="evenodd"/></g></g></svg>