<svg xmlns="http://www.w3.org/2000/svg" width="20.108" height="22.013" viewBox="0 0 20.108 22.013"><defs><style>.a{fill:none;stroke:#fff;stroke-linecap:round;stroke-linejoin:round;stroke-width:2px;}</style></defs><g transform="translate(-3.402 -1.972)"><path class="a" d="M22.413,16.934V8.972a1.99,1.99,0,0,0-1-1.722L14.452,3.27a1.99,1.99,0,0,0-1.99,0L5.5,7.25a1.99,1.99,0,0,0-1,1.722v7.961a1.99,1.99,0,0,0,1,1.722l6.966,3.981a1.99,1.99,0,0,0,1.99,0l6.966-3.981a1.99,1.99,0,0,0,1-1.722Z"/><path class="a" d="M4.905,10.44l8.688,5.026,8.688-5.026" transform="translate(-0.136 -2.503)"/><path class="a" d="M18,28.031V18" transform="translate(-4.543 -5.047)"/></g></svg>