<svg xmlns="http://www.w3.org/2000/svg" width="20.108" height="22.013" viewBox="0 0 20.108 22.013"><g transform="translate(-3.402 -1.972)"><path d="M22.413,16.934V8.972a1.99,1.99,0,0,0-1-1.722L14.452,3.27a1.99,1.99,0,0,0-1.99,0L5.5,7.25a1.99,1.99,0,0,0-1,1.722v7.961a1.99,1.99,0,0,0,1,1.722l6.966,3.981a1.99,1.99,0,0,0,1.99,0l6.966-3.981a1.99,1.99,0,0,0,1-1.722Z" fill="none" stroke="#fff" stroke-linecap="round" stroke-linejoin="round" stroke-width="2"/><path d="M4.905,10.44l8.688,5.026,8.688-5.026" transform="translate(-0.136 -2.503)" fill="none" stroke="#fff" stroke-linecap="round" stroke-linejoin="round" stroke-width="2"/><path d="M18,28.031V18" transform="translate(-4.543 -5.047)" fill="none" stroke="#fff" stroke-linecap="round" stroke-linejoin="round" stroke-width="2"/></g></svg>