<svg enable-background="new 0 0 24 24" height="512" viewBox="0 0 24 24" width="512" xmlns="http://www.w3.org/2000/svg"><path d="m5.5 7.832v-2.332c0-1.654 1.346-3 3-3s3 1.346 3 3v2c.104 0 .202.024.304.034.736-.801 1.196-1.86 1.196-3.034 0-2.485-2.015-4.5-4.5-4.5s-4.5 2.015-4.5 4.5c0 1.328.586 2.508 1.5 3.332z"/><path d="m19 11c-.828 0-1.5.672-1.5 1.5v.25c0 .138-.112.25-.25.25s-.25-.112-.25-.25v-1.25c0-.828-.672-1.5-1.5-1.5s-1.5.672-1.5 1.5v1.25c0 .138-.112.25-.25.25s-.25-.112-.25-.25v-2.25c0-.828-.672-1.5-1.5-1.5s-1.5.672-1.5 1.5v2.25c0 .138-.112.25-.25.25s-.25-.112-.25-.25v-7.25c0-.828-.672-1.5-1.5-1.5s-1.5.672-1.5 1.5v9c-.276 0-.5-.224-.5-.5v-2h-.494c-1.645 0-3.007 1.328-3.006 2.973.005 5.281 3.849 9.027 6.213 9.027h6.287c2.761 0 5-2.239 5-5v-6.5c0-.828-.672-1.5-1.5-1.5z"/></svg>