<svg xmlns="http://www.w3.org/2000/svg" width="20" height="18.182" viewBox="0 0 20 18.182"><defs><style>.a{fill:#ffd750;}</style></defs><path class="a" d="M15.366,11.193,19.68,7.8a.818.818,0,0,0-.505-1.464L13.62,6.02a.87.87,0,0,1-.758-.521L10.821.526a.887.887,0,0,0-1.62,0L7.159,5.479A.87.87,0,0,1,6.4,6L.825,6.321A.818.818,0,0,0,.32,7.785l4.314,3.369A.822.822,0,0,1,4.928,12l-1.41,5.153a.858.858,0,0,0,1.3.9l4.693-2.867a.859.859,0,0,1,.926,0l4.714,2.867a.858.858,0,0,0,1.3-.9l-1.41-5.133A.8.8,0,0,1,15.366,11.193Z"/></svg>