<svg xmlns="http://www.w3.org/2000/svg" width="136" height="136" viewBox="0 0 136 136"><g transform="translate(-79 -222)"><circle cx="68" cy="68" r="68" transform="translate(79 222)" fill="#cb1b5f" opacity="0.1"/><circle cx="46" cy="46" r="46" transform="translate(101 244)" fill="#cb1b5f"/><g transform="translate(124.763 270.349)"><path d="M368.606,323.846a5.313,5.313,0,0,1-3.2-1.062l-.057-.043-12.039-9.209a5.35,5.35,0,1,1,6.51-8.492l7.8,5.98,18.427-24.04a5.348,5.348,0,0,1,7.5-.99h0l-.114.159.117-.159a5.354,5.354,0,0,1,.989,7.5l-21.674,28.263a5.351,5.351,0,0,1-4.255,2.086Z" transform="translate(-351.219 -284.886)" fill="#fff"/></g></g></svg>