<svg id="Capa_1" enable-background="new 0 0 512 512" height="512" viewBox="0 0 512 512" width="512" xmlns="http://www.w3.org/2000/svg" xmlns:xlink="http://www.w3.org/1999/xlink"><linearGradient id="SVGID_1_" gradientUnits="userSpaceOnUse" x1="256" x2="256" y1="463.543" y2="45"><stop offset="0" stop-color="#c3ffe8"/><stop offset=".9973" stop-color="#f0fff4"/></linearGradient><linearGradient id="SVGID_2_" gradientUnits="userSpaceOnUse" x1="256" x2="256" y1="512" y2="0"><stop offset="0" stop-color="#00b59c"/><stop offset="1" stop-color="#9cffac"/></linearGradient><g><path d="m256.044 463.543c-3.725 0-7.375-.683-10.848-2.03-21.773-8.447-63.695-27.404-99.843-59.473-46.019-40.827-69.353-89.625-69.353-145.04v-138.099c0-10.657 5.727-20.601 14.945-25.949 13.666-7.928 25.079-19.342 33.007-33.007 5.348-9.218 15.292-14.945 25.949-14.945h212.197c10.658 0 20.601 5.727 25.949 14.945 7.928 13.665 19.341 25.079 33.007 33.007 9.219 5.349 14.946 15.292 14.946 25.949v138.099c0 55.543-23.259 104.362-69.132 145.101-36.154 32.108-78.195 51.02-100.038 59.436-3.455 1.331-7.083 2.006-10.786 2.006z" fill="url(#SVGID_1_)"/><g><g><path d="m466 60c-24.813 0-45-20.187-45-45 0-8.284-6.716-15-15-15h-300c-8.284 0-15 6.716-15 15 0 24.813-20.187 45-45 45-8.284 0-15 6.716-15 15v182c0 43.956 11.829 84.831 35.158 121.49 18.457 29.003 44.068 55.318 76.124 78.215 48.242 34.46 105.501 55.295 113.718 55.295 7.79 0 64.778-20.336 113.719-55.294 32.056-22.897 57.667-49.212 76.124-78.216 23.328-36.659 35.157-77.534 35.157-121.49v-182c0-8.284-6.716-15-15-15zm-45 197c0 51.071-21.564 96.116-64.093 133.885-34.386 30.537-74.575 48.604-95.47 56.655-3.481 1.341-7.337 1.338-10.818-.012-20.833-8.082-60.917-26.196-95.311-56.708-42.672-37.857-64.308-82.88-64.308-133.82v-138.099c0-5.348 2.847-10.291 7.473-12.974 15.92-9.237 29.218-22.534 38.454-38.454 2.683-4.626 7.627-7.473 12.974-7.473h212.197c5.348 0 10.291 2.847 12.975 7.473 9.236 15.92 22.534 29.218 38.454 38.454 4.625 2.684 7.473 7.627 7.473 12.974zm-165-120c-57.897 0-105 47.103-105 105s47.103 105 105 105 105-47.103 105-105-47.103-105-105-105zm43.606 93.107-45 45c-5.857 5.857-15.355 5.858-21.213 0l-22.5-22.5c-5.858-5.858-5.858-15.355 0-21.213 5.857-5.858 15.355-5.858 21.213 0l11.894 11.893 34.394-34.393c5.857-5.858 15.355-5.858 21.213 0 5.857 5.857 5.857 15.355-.001 21.213z" fill="url(#SVGID_2_)"/></g></g></g></svg>