<svg xmlns="http://www.w3.org/2000/svg" width="19.651" height="18.115" viewBox="0 0 19.651 18.115"><g transform="translate(0 -20)"><g transform="translate(0 20)"><path d="M18.115,28.328V23.07H2.3a.768.768,0,0,1,0-1.535H16.58V20H2.3A2.305,2.305,0,0,0,0,22.3v13.51a2.305,2.305,0,0,0,2.3,2.3H18.115V32.934h1.535V28.328ZM16.58,36.58H2.3a.768.768,0,0,1-.768-.768V24.474a2.292,2.292,0,0,0,.768.132H16.58v3.723H14.815a2.3,2.3,0,0,0,0,4.606H16.58ZM18.115,31.4h-3.3a.768.768,0,1,1,0-1.535h3.3Z" transform="translate(0 -20)" fill="#fff"/></g></g></svg>